Coordinates
version=1
nRows=13
nColumns=18
inDegrees=yes

Units are S.I. units (second, meters, Newtons, ...)
If the header above contains a line with 'inDegrees', this indicates whether rotational values are in degrees (yes) or radians (no).

endheader
time	TH_y	TH_x	TH_z	TH_x_trans	TH_y_trans	TH_z_trans	SC_y	SC_z	SC_x	AC_y	AC_z	AC_x	GH_y	GH_z	GH_yy	EL_x	PS_y
      0.00000000	   -146.08815714	     -4.85444639	      0.04113394	     -0.00883544	      1.46912023	      0.01625550	    -24.00074820	      3.44135486	      8.44482669	     52.54551795	      4.59740973	     -5.17131334	      2.85815344	     -5.05927843	      3.27829500	     26.44204783	    112.25854655
      0.01000000	   -146.08312656	     -4.82846215	      0.03669596	     -0.00942549	      1.46910100	      0.01553813	    -23.99483056	      3.43023003	      8.46388505	     52.54713097	      4.60610083	     -5.15155805	      2.85335794	     -5.04794850	      3.27482721	     26.45126722	    112.25662795
      0.02000000	   -146.07987728	     -4.79746014	      0.03140752	     -0.00999906	      1.46913356	      0.01483845	    -23.99088228	      3.42030589	      8.48124031	     52.54857751	      4.61485077	     -5.13491433	      2.84834842	     -5.03652930	      3.27089338	     26.45925045	    112.25475986
      0.03000000	   -146.10063978	     -4.65051801	     -0.00909640	     -0.01066573	      1.46941198	      0.01418647	    -24.00703616	      3.42571604	      8.45818179	     52.57235326	      4.61249987	     -5.17276004	      2.83192260	     -5.01869878	      3.24829561	     26.45010997	    112.24680006
      0.04000000	   -146.08830201	     -4.62477313	     -0.01104083	     -0.01121602	      1.46940044	      0.01346979	    -23.99684063	      3.41830196	      8.47579630	     52.57530444	      4.62085489	     -5.15436072	      2.82918244	     -5.00801693	      3.24668974	     26.45798132	    112.24561536
      0.05000000	   -146.07704170	     -4.59389610	     -0.01421392	     -0.01176584	      1.46943571	      0.01280566	    -23.98838087	      3.41158830	      8.49044238	     52.57839388	      4.62759056	     -5.13878649	      2.82655219	     -4.99884085	      3.24495301	     26.46449035	    112.24454292
      0.06000000	   -146.02699838	     -4.39015651	     -0.04007287	     -0.01239214	      1.46974241	      0.01202518	    -23.97161424	      3.45432510	      8.43126024	     52.62300488	      4.60339778	     -5.20026440	      2.82491080	     -4.99862376	      3.23334048	     26.43412028	    112.24159928
      0.07000000	   -146.01609802	     -4.36791841	     -0.04163762	     -0.01291090	      1.46974315	      0.01137410	    -23.96376690	      3.44621426	      8.44844780	     52.62485052	      4.61128371	     -5.18205610	      2.82087760	     -4.98838334	      3.23043266	     26.44167339	    112.24026798
      0.08000000	   -146.00432346	     -4.34063598	     -0.04428133	     -0.01344888	      1.46978381	      0.01077526	    -23.95629704	      3.43840117	      8.46234590	     52.62731175	      4.61653381	     -5.16566254	      2.81751330	     -4.98063878	      3.22801846	     26.44808825	    112.23914577
      0.09000000	   -145.99139423	     -4.30757842	     -0.04690217	     -0.01398949	      1.46982672	      0.01018741	    -23.94892512	      3.43189794	      8.47390122	     52.63023374	      4.62050026	     -5.15131166	      2.81459094	     -4.97409341	      3.22584006	     26.45310301	    112.23820451
      0.10000000	   -145.91398319	     -4.08525907	     -0.05245380	     -0.01457269	      1.47012925	      0.00943551	    -23.93388103	      3.48135288	      8.39942711	     52.67042648	      4.58083040	     -5.21483230	      2.80889851	     -4.98964099	      3.20962824	     26.40980974	    112.23650542
      0.11000000	   -145.90266492	     -4.06496394	     -0.05550568	     -0.01508796	      1.47013920	      0.00886529	    -23.92648558	      3.47182222	      8.41481858	     52.67194952	      4.58713427	     -5.19781226	      2.80471146	     -4.98099281	      3.20649046	     26.41676042	    112.23521197
      0.12000000	   -145.89068617	     -4.04028230	     -0.05913034	     -0.01561905	      1.47017353	      0.00834967	    -23.91931905	      3.46316160	      8.42685488	     52.67411255	      4.59104533	     -5.18301650	      2.80134412	     -4.97466781	      3.20396598	     26.42256248	    112.23412640
